# Made in Blockbench 4.9.4
mtllib lantern.mtl

o cube
v 0.0625 0.625 0.0625
v 0.0625 0.625 -0.0625
v 0.0625 0.5625 0.0625
v 0.0625 0.5625 -0.0625
v -0.0625 0.625 0.0625
v -0.0625 0.625 -0.0625
v -0.0625 0.5625 0.0625
v -0.0625 0.5625 -0.0625
vt 0.25 0.46875
vt 0.25 0.5
vt 0.1875 0.5
vt 0.1875 0.46875
vt 0.3125 0.46875
vt 0.3125 0.5
vt 0.25 0.5
vt 0.25 0.46875
vt 0.1875 0.4375
vt 0.1875 0.5
vt 0.125 0.5
vt 0.125 0.4375
vt 0.375 0.46875
vt 0.375 0.5
vt 0.3125 0.5
vt 0.3125 0.46875
vt 0.4375 0.46875
vt 0.4375 0.5
vt 0.375 0.5
vt 0.375 0.46875
vn 1 0 0
vn -1 0 0
vn 0 1 0
vn 0 0 1
vn 0 0 -1
usemtl m_a7d2ddb0-e60f-4c31-ed69-cd7df0005f2e
f 4/1/1 2/2/1 1/3/1 3/4/1
f 7/5/2 5/6/2 6/7/2 8/8/2
f 1/9/3 2/10/3 6/11/3 5/12/3
f 3/13/4 1/14/4 5/15/4 7/16/4
f 8/17/5 6/18/5 2/19/5 4/20/5
o cube
v 0.1875 0.4375 0.1875
v 0.1875 0.4375 -0.1875
v 0.1875 0 0.1875
v 0.1875 0 -0.1875
v -0.1875 0.4375 0.1875
v -0.1875 0.4375 -0.1875
v -0.1875 0 0.1875
v -0.1875 0 -0.1875
vt 0.1875 0.78125
vt 0.1875 1
vt 0 1
vt 0 0.78125
vt 0.1875 0.78125
vt 0.1875 1
vt 0 1
vt 0 0.78125
vt 0.5625 0.8125
vt 0.5625 1
vt 0.375 1
vt 0.375 0.8125
vt 0.5625 0.625
vt 0.5625 0.8125
vt 0.375 0.8125
vt 0.375 0.625
vt 0.1875 0.78125
vt 0.1875 1
vt 0 1
vt 0 0.78125
vt 0.1875 0.78125
vt 0.1875 1
vt 0 1
vt 0 0.78125
vn 1 0 0
vn -1 0 0
vn 0 1 0
vn 0 -1 0
vn 0 0 1
vn 0 0 -1
usemtl m_a7d2ddb0-e60f-4c31-ed69-cd7df0005f2e
f 12/21/6 10/22/6 9/23/6 11/24/6
f 15/25/7 13/26/7 14/27/7 16/28/7
f 9/29/8 10/30/8 14/31/8 13/32/8
f 12/33/9 11/34/9 15/35/9 16/36/9
f 11/37/10 9/38/10 13/39/10 15/40/10
f 16/41/11 14/42/11 10/43/11 12/44/11
o cube
v 0.125 0.5625 0.125
v 0.125 0.5625 -0.125
v 0.125 0.4375 0.125
v 0.125 0.4375 -0.125
v -0.125 0.5625 0.125
v -0.125 0.5625 -0.125
v -0.125 0.4375 0.125
v -0.125 0.4375 -0.125
vt 0.125 0.5
vt 0.125 0.5625
vt 0 0.5625
vt 0 0.5
vt 0.25 0.5
vt 0.25 0.5625
vt 0.125 0.5625
vt 0.125 0.5
vt 0.5 0.5
vt 0.5 0.625
vt 0.375 0.625
vt 0.375 0.5
vt 0.375 0.5
vt 0.375 0.5625
vt 0.25 0.5625
vt 0.25 0.5
vt 0.125 0.4375
vt 0.125 0.5
vt 0 0.5
vt 0 0.4375
vn 1 0 0
vn -1 0 0
vn 0 1 0
vn 0 0 1
vn 0 0 -1
usemtl m_a7d2ddb0-e60f-4c31-ed69-cd7df0005f2e
f 20/45/12 18/46/12 17/47/12 19/48/12
f 23/49/13 21/50/13 22/51/13 24/52/13
f 17/53/14 18/54/14 22/55/14 21/56/14
f 19/57/15 17/58/15 21/59/15 23/60/15
f 24/61/16 22/62/16 18/63/16 20/64/16