# Made in Blockbench 4.9.4
mtllib market_stand.mtl

o cube
v 1.5 0.8279123570164815 0.8769726713345622
v 1.5 1.9025115737101292 -0.8098102202912092
v 1.5 0.7224884262898708 0.8098102202912092
v 1.5 1.7970876429835185 -0.8769726713345622
v -1.5 0.8279123570164815 0.8769726713345622
v -1.5 1.9025115737101292 -0.8098102202912092
v -1.5 0.7224884262898708 0.8098102202912092
v -1.5 1.7970876429835185 -0.8769726713345622
v 1.375 1.6250000000000002 -0.375
v 1.375 1.6875000000000004 -0.6249999999999999
v 1.375 0 -0.375
v 1.375 2.220446049250313e-16 -0.625
v 1.125 1.6250000000000002 -0.375
v 1.125 1.6875000000000004 -0.6249999999999999
v 1.125 0 -0.375
v 1.125 2.220446049250313e-16 -0.625
v 1.125 0.5555555555555557 -0.37499999999999994
v 1.125 0.5625 -0.625
v 1.125 0.3750000000000001 -0.375
v 1.125 0.375 -0.6250000000000001
v -1.1875 0.5555555555555557 -0.37499999999999994
v -1.1875 0.5625 -0.625
v -1.1875 0.3750000000000001 -0.375
v -1.1875 0.375 -0.6250000000000001
v -1.1875 1.6250000000000002 -0.375
v -1.1875 1.6875000000000004 -0.6249999999999999
v -1.1875 0 -0.375
v -1.1875 2.220446049250313e-16 -0.625
v -1.4375 1.6250000000000002 -0.375
v -1.4375 1.6875000000000004 -0.6249999999999999
v -1.4375 0 -0.375
v -1.4375 2.220446049250313e-16 -0.625
v -1.25 1.0000000000000002 0.5625000000000001
v -1.25 1.0625 0.43749999999999994
v -1.25 0 0.5625
v -1.25 0 0.43750000000000006
v -1.375 1.0000000000000002 0.5625000000000001
v -1.375 1.0625 0.43749999999999994
v -1.375 0 0.5625
v -1.375 0 0.43750000000000006
v 1.3125 1.0000000000000002 0.5625000000000001
v 1.3125 1.0625 0.43749999999999994
v 1.3125 0 0.5625
v 1.3125 0 0.43750000000000006
v 1.1875 1.0000000000000002 0.5625000000000001
v 1.1875 1.0625 0.43749999999999994
v 1.1875 0 0.5625
v 1.1875 0 0.43750000000000006
vt 0.8571428571428571 0.8392857142857143
vt 0.8571428571428571 0.8571428571428572
vt 0.5714285714285714 0.8571428571428572
vt 0.5714285714285714 0.8392857142857143
vt 0.8571428571428571 0.8214285714285714
vt 0.8571428571428571 0.8392857142857143
vt 0.5714285714285714 0.8392857142857143
vt 0.5714285714285714 0.8214285714285714
vt 0 1
vt 0 0.7142857142857143
vt 0.42857142857142855 0.7142857142857143
vt 0.42857142857142855 1
vt 0 0.4285714285714286
vt 0 0.7142857142857143
vt 0.42857142857142855 0.7142857142857143
vt 0.42857142857142855 0.4285714285714286
vt 1 0.8571428571428572
vt 1 0.875
vt 0.5714285714285714 0.875
vt 0.5714285714285714 0.8571428571428572
vt 0.42857142857142855 0.4107142857142857
vt 0.42857142857142855 0.4285714285714286
vt 0 0.4285714285714286
vt 0 0.4107142857142857
vt 0.4642857142857143 0.6339285714285714
vt 0.4642857142857143 0.875
vt 0.42857142857142855 0.8660714285714286
vt 0.42857142857142855 0.6339285714285714
vt 0.4642857142857143 0.3928571428571429
vt 0.4642857142857143 0.625
vt 0.42857142857142855 0.6339285714285714
vt 0.42857142857142855 0.3928571428571429
vt 0.16071428571428573 0.375
vt 0.16071428571428573 0.4107142857142857
vt 0.125 0.4107142857142857
vt 0.125 0.375
vt 0.125 0.375
vt 0.125 0.4107142857142857
vt 0.08928571428571429 0.4107142857142857
vt 0.08928571428571429 0.375
vt 0.5714285714285714 0.6428571428571428
vt 0.5714285714285714 0.875
vt 0.5357142857142857 0.875
vt 0.5357142857142857 0.6428571428571428
vt 0.5 0.6339285714285714
vt 0.5 0.875
vt 0.4642857142857143 0.875
vt 0.4642857142857143 0.6339285714285714
vt 0.23214285714285715 0.3839285714285714
vt 0.23214285714285715 0.4107142857142857
vt 0.19642857142857142 0.40972232142857146
vt 0.19642857142857142 0.3839285714285714
vt 0.625 0.7589285714285714
vt 0.625 0.7847223214285715
vt 0.5892857142857143 0.7857142857142857
vt 0.5892857142857143 0.7589285714285714
vt 0.7589285714285714 0.9285714285714286
vt 0.7589285714285714 0.9642857142857143
vt 0.42857142857142855 0.9642857142857143
vt 0.42857142857142855 0.9285714285714286
vt 0.7589285714285714 0.9642857142857143
vt 0.7589285714285714 1
vt 0.42857142857142855 1
vt 0.42857142857142855 0.9642857142857143
vt 0.7589285714285714 0.9017857142857143
vt 0.7589285714285714 0.9285714285714286
vt 0.42857142857142855 0.9285714285714286
vt 0.42857142857142855 0.9017857142857143
vt 0.7589285714285714 0.875
vt 0.7589285714285714 0.9017857142857143
vt 0.42857142857142855 0.9017857142857143
vt 0.42857142857142855 0.875
vt 0.5 0.3928571428571429
vt 0.5 0.6339285714285714
vt 0.4642857142857143 0.625
vt 0.4642857142857143 0.3928571428571429
vt 0.5357142857142857 0.6339285714285714
vt 0.5357142857142857 0.8660714285714286
vt 0.5 0.875
vt 0.5 0.6339285714285714
vt 0.625 0.7857142857142857
vt 0.625 0.8214285714285714
vt 0.5892857142857143 0.8214285714285714
vt 0.5892857142857143 0.7857142857142857
vt 0.19642857142857142 0.375
vt 0.19642857142857142 0.4107142857142857
vt 0.16071428571428573 0.4107142857142857
vt 0.16071428571428573 0.375
vt 0.5714285714285714 0.4107142857142857
vt 0.5714285714285714 0.6428571428571428
vt 0.5357142857142857 0.6428571428571428
vt 0.5357142857142857 0.4107142857142857
vt 0.5357142857142857 0.3928571428571429
vt 0.5357142857142857 0.6339285714285714
vt 0.5 0.6339285714285714
vt 0.5 0.3928571428571429
vt 0.5892857142857143 0.6696428571428572
vt 0.5892857142857143 0.8214285714285714
vt 0.5714285714285714 0.8125
vt 0.5714285714285714 0.6696428571428572
vt 0.5892857142857143 0.5178571428571428
vt 0.5892857142857143 0.6607142857142857
vt 0.5714285714285714 0.6696428571428572
vt 0.5714285714285714 0.5178571428571428
vt 0.6071428571428571 0.7410714285714286
vt 0.6071428571428571 0.7589285714285714
vt 0.5892857142857143 0.7589285714285714
vt 0.5892857142857143 0.7410714285714286
vt 0.25 0.3928571428571429
vt 0.25 0.4107142857142857
vt 0.23214285714285715 0.4107142857142857
vt 0.23214285714285715 0.3928571428571429
vt 0.07142857142857142 0.2678571428571429
vt 0.07142857142857142 0.4107142857142857
vt 0.05357142857142857 0.4107142857142857
vt 0.05357142857142857 0.2678571428571429
vt 0.5892857142857143 0.3660714285714286
vt 0.5892857142857143 0.5178571428571428
vt 0.5714285714285714 0.5178571428571428
vt 0.5714285714285714 0.3660714285714286
vt 0.017857142857142856 0.2589285714285714
vt 0.017857142857142856 0.4107142857142857
vt 0 0.4017857142857143
vt 0 0.2589285714285714
vt 0.03571428571428571 0.2589285714285714
vt 0.03571428571428571 0.4017857142857143
vt 0.017857142857142856 0.4107142857142857
vt 0.017857142857142856 0.2589285714285714
vt 0.6071428571428571 0.7232142857142857
vt 0.6071428571428571 0.7410714285714286
vt 0.5892857142857143 0.7410714285714286
vt 0.5892857142857143 0.7232142857142857
vt 0.26785714285714285 0.3928571428571429
vt 0.26785714285714285 0.4107142857142857
vt 0.25 0.4107142857142857
vt 0.25 0.3928571428571429
vt 0.08928571428571429 0.2678571428571429
vt 0.08928571428571429 0.4107142857142857
vt 0.07142857142857142 0.4107142857142857
vt 0.07142857142857142 0.2678571428571429
vt 0.05357142857142857 0.2589285714285714
vt 0.05357142857142857 0.4107142857142857
vt 0.03571428571428571 0.4107142857142857
vt 0.03571428571428571 0.2589285714285714
vn 1 0 0
vn -1 0 0
vn 0 0.8433914458128857 0.5372996083468239
vn 0 -0.8433914458128857 -0.5372996083468239
vn 0 -0.5372996083468239 0.8433914458128857
vn 0 0.5372996083468239 -0.8433914458128857
vn 1 0 0
vn -1 0 0
vn 0 0.9701425001453318 0.24253562503633375
vn 0 -1 -2.220446049250313e-16
vn 0 0 1
vn 0 0 -1
vn 1 0 0
vn -1 0 0
vn 0 0.9996144206527183 0.027767067240352883
vn 0 -1 4.440892098500626e-16
vn 0 -1.1102230246251563e-16 1
vn 0 3.885780586188048e-16 -1
vn 1 0 0
vn -1 0 0
vn 0 0.9701425001453318 0.24253562503633375
vn 0 -1 -2.220446049250313e-16
vn 0 0 1
vn 0 0 -1
vn 1 0 0
vn -1 0 0
vn 0 0.8944271909999166 0.4472135954999569
vn 0 -1 -2.220446049250313e-16
vn 0 0 1
vn 0 -5.551115123125783e-17 -1
vn 1 0 0
vn -1 0 0
vn 0 0.8944271909999166 0.4472135954999569
vn 0 -1 -2.220446049250313e-16
vn 0 0 1
vn 0 -5.551115123125783e-17 -1
usemtl m_570f3d2f-3a87-4262-c1cf-b9c22b2982ab
f 4/1/1 2/2/1 1/3/1 3/4/1
f 7/5/2 5/6/2 6/7/2 8/8/2
f 1/9/3 2/10/3 6/11/3 5/12/3
f 4/13/4 3/14/4 7/15/4 8/16/4
f 3/17/5 1/18/5 5/19/5 7/20/5
f 8/21/6 6/22/6 2/23/6 4/24/6
f 12/25/7 10/26/7 9/27/7 11/28/7
f 15/29/8 13/30/8 14/31/8 16/32/8
f 9/33/9 10/34/9 14/35/9 13/36/9
f 12/37/10 11/38/10 15/39/10 16/40/10
f 11/41/11 9/42/11 13/43/11 15/44/11
f 16/45/12 14/46/12 10/47/12 12/48/12
f 20/49/13 18/50/13 17/51/13 19/52/13
f 23/53/14 21/54/14 22/55/14 24/56/14
f 17/57/15 18/58/15 22/59/15 21/60/15
f 20/61/16 19/62/16 23/63/16 24/64/16
f 19/65/17 17/66/17 21/67/17 23/68/17
f 24/69/18 22/70/18 18/71/18 20/72/18
f 28/73/19 26/74/19 25/75/19 27/76/19
f 31/77/20 29/78/20 30/79/20 32/80/20
f 25/81/21 26/82/21 30/83/21 29/84/21
f 28/85/22 27/86/22 31/87/22 32/88/22
f 27/89/23 25/90/23 29/91/23 31/92/23
f 32/93/24 30/94/24 26/95/24 28/96/24
f 36/97/25 34/98/25 33/99/25 35/100/25
f 39/101/26 37/102/26 38/103/26 40/104/26
f 33/105/27 34/106/27 38/107/27 37/108/27
f 36/109/28 35/110/28 39/111/28 40/112/28
f 35/113/29 33/114/29 37/115/29 39/116/29
f 40/117/30 38/118/30 34/119/30 36/120/30
f 44/121/31 42/122/31 41/123/31 43/124/31
f 47/125/32 45/126/32 46/127/32 48/128/32
f 41/129/33 42/130/33 46/131/33 45/132/33
f 44/133/34 43/134/34 47/135/34 48/136/34
f 43/137/35 41/138/35 45/139/35 47/140/35
f 48/141/36 46/142/36 42/143/36 44/144/36