# Made in Blockbench 4.9.4
mtllib treasure_chest.mtl

o cube
v 0.0625 0.5 -0.3125
v 0.0625 0.5 -0.375
v 0.0625 0.3125 -0.3125
v 0.0625 0.3125 -0.375
v -0.0625 0.5 -0.3125
v -0.0625 0.5 -0.375
v -0.0625 0.3125 -0.3125
v -0.0625 0.3125 -0.375
vt 0.6041666666666666 0.6458333333333333
vt 0.6041666666666666 0.7083333333333333
vt 0.5833333333333334 0.7083333333333333
vt 0.5833333333333334 0.6458333333333333
vt 0.6041666666666666 0.5833333333333333
vt 0.6041666666666666 0.6458333333333333
vt 0.5833333333333334 0.6458333333333333
vt 0.5833333333333334 0.5833333333333333
vt 0.6458333333333334 0.6875
vt 0.6458333333333334 0.7083333333333333
vt 0.6041666666666666 0.7083333333333333
vt 0.6041666666666666 0.6875
vt 0.6458333333333334 0.6666666666666667
vt 0.6458333333333334 0.6875
vt 0.6041666666666666 0.6875
vt 0.6041666666666666 0.6666666666666667
vt 0.625 0.7083333333333333
vt 0.625 0.7708333333333334
vt 0.5833333333333334 0.7708333333333334
vt 0.5833333333333334 0.7083333333333333
vn 1 0 0
vn -1 0 0
vn 0 1 0
vn 0 -1 0
vn 0 0 -1
usemtl m_a5ba6cd5-5084-4c80-e0aa-c7509831d7ae
f 4/1/1 2/2/1 1/3/1 3/4/1
f 7/5/2 5/6/2 6/7/2 8/8/2
f 1/9/3 2/10/3 6/11/3 5/12/3
f 4/13/4 3/14/4 7/15/4 8/16/4
f 8/17/5 6/18/5 2/19/5 4/20/5
o cube
v 0.4375 0.625 0.3125
v 0.4375 0.625 -0.3125
v 0.4375 0 0.3125
v 0.4375 0 -0.3125
v -0.4375 0.625 0.3125
v -0.4375 0.625 -0.3125
v -0.4375 0 0.3125
v -0.4375 0 -0.3125
vt 0.20833333333333334 0.14583333333333337
vt 0.20833333333333334 0.35416666666666663
vt 0 0.35416666666666663
vt 0 0.14583333333333337
vt 0.4166666666666667 0.14583333333333337
vt 0.4166666666666667 0.35416666666666663
vt 0.20833333333333334 0.35416666666666663
vt 0.20833333333333334 0.14583333333333337
vt 0.2916666666666667 0.7916666666666666
vt 0.2916666666666667 1
vt 0 1
vt 0 0.7916666666666666
vt 0.2916666666666667 0.5833333333333333
vt 0.2916666666666667 0.7916666666666666
vt 0 0.7916666666666666
vt 0 0.5833333333333333
vt 0.5833333333333334 0.7916666666666666
vt 0.5833333333333334 1
vt 0.2916666666666667 1
vt 0.2916666666666667 0.7916666666666666
vt 0.5833333333333334 0.5833333333333333
vt 0.5833333333333334 0.7916666666666666
vt 0.2916666666666667 0.7916666666666666
vt 0.2916666666666667 0.5833333333333333
vn 1 0 0
vn -1 0 0
vn 0 1 0
vn 0 -1 0
vn 0 0 1
vn 0 0 -1
usemtl m_a5ba6cd5-5084-4c80-e0aa-c7509831d7ae
f 12/21/6 10/22/6 9/23/6 11/24/6
f 15/25/7 13/26/7 14/27/7 16/28/7
f 9/29/8 10/30/8 14/31/8 13/32/8
f 12/33/9 11/34/9 15/35/9 16/36/9
f 11/37/10 9/38/10 13/39/10 15/40/10
f 16/41/11 14/42/11 10/43/11 12/44/11
o cube
v -0.171875 0.640625 0.328125
v -0.171875 0.640625 -0.328125
v -0.171875 -0.015625 0.328125
v -0.171875 -0.015625 -0.328125
v -0.328125 0.640625 0.328125
v -0.328125 0.640625 -0.328125
v -0.328125 -0.015625 0.328125
v -0.328125 -0.015625 -0.328125
vt 0.6875 0.35416666666666663
vt 0.6875 0.5833333333333333
vt 0.4583333333333333 0.5833333333333333
vt 0.4583333333333333 0.35416666666666663
vt 0.8125 0.7708333333333334
vt 0.8125 1
vt 0.5833333333333334 1
vt 0.5833333333333334 0.7708333333333334
vt 0.7291666666666666 0.125
vt 0.7291666666666666 0.35416666666666663
vt 0.6666666666666666 0.35416666666666663
vt 0.6666666666666666 0.125
vt 0.75 0.5416666666666667
vt 0.75 0.7708333333333334
vt 0.6875 0.7708333333333334
vt 0.6875 0.5416666666666667
vt 0.7916666666666666 0.3125
vt 0.7916666666666666 0.5416666666666667
vt 0.7291666666666666 0.5416666666666667
vt 0.7291666666666666 0.3125
vt 0.7916666666666666 0.08333333333333337
vt 0.7916666666666666 0.3125
vt 0.7291666666666666 0.3125
vt 0.7291666666666666 0.08333333333333337
vn 1 0 0
vn -1 0 0
vn 0 1 0
vn 0 -1 0
vn 0 0 1
vn 0 0 -1
usemtl m_a5ba6cd5-5084-4c80-e0aa-c7509831d7ae
f 20/45/12 18/46/12 17/47/12 19/48/12
f 23/49/13 21/50/13 22/51/13 24/52/13
f 17/53/14 18/54/14 22/55/14 21/56/14
f 20/57/15 19/58/15 23/59/15 24/60/15
f 19/61/16 17/62/16 21/63/16 23/64/16
f 24/65/17 22/66/17 18/67/17 20/68/17
o cube
v 0.328125 0.640625 0.328125
v 0.328125 0.640625 -0.328125
v 0.328125 -0.015625 0.328125
v 0.328125 -0.015625 -0.328125
v 0.171875 0.640625 0.328125
v 0.171875 0.640625 -0.328125
v 0.171875 -0.015625 0.328125
v 0.171875 -0.015625 -0.328125
vt 0.22916666666666666 0.35416666666666663
vt 0.22916666666666666 0.5833333333333333
vt 0 0.5833333333333333
vt 0 0.35416666666666663
vt 0.4583333333333333 0.35416666666666663
vt 0.4583333333333333 0.5833333333333333
vt 0.22916666666666666 0.5833333333333333
vt 0.22916666666666666 0.35416666666666663
vt 0.4791666666666667 0.125
vt 0.4791666666666667 0.35416666666666663
vt 0.4166666666666667 0.35416666666666663
vt 0.4166666666666667 0.125
vt 0.5416666666666666 0.125
vt 0.5416666666666666 0.35416666666666663
vt 0.4791666666666667 0.35416666666666663
vt 0.4791666666666667 0.125
vt 0.6041666666666666 0.125
vt 0.6041666666666666 0.35416666666666663
vt 0.5416666666666666 0.35416666666666663
vt 0.5416666666666666 0.125
vt 0.6666666666666666 0.125
vt 0.6666666666666666 0.35416666666666663
vt 0.6041666666666666 0.35416666666666663
vt 0.6041666666666666 0.125
vn 1 0 0
vn -1 0 0
vn 0 1 0
vn 0 -1 0
vn 0 0 1
vn 0 0 -1
usemtl m_a5ba6cd5-5084-4c80-e0aa-c7509831d7ae
f 28/69/18 26/70/18 25/71/18 27/72/18
f 31/73/19 29/74/19 30/75/19 32/76/19
f 25/77/20 26/78/20 30/79/20 29/80/20
f 28/81/21 27/82/21 31/83/21 32/84/21
f 27/85/22 25/86/22 29/87/22 31/88/22
f 32/89/23 30/90/23 26/91/23 28/92/23