# Made in Blockbench 4.9.4
mtllib dungeon_wall_bottom.mtl

o pillar
v 0.5 0.5625 -2.5
v 0.5 0.5625 -3.5
v 0.5 -5 -2.5
v 0.5 -5 -3.5
v -0.5 0.5625 -2.5
v -0.5 0.5625 -3.5
v -0.5 -5 -2.5
v -0.5 -5 -3.5
vt 0.375 0.0625
vt 0.375 0.41015625
vt 0.3125 0.41015625
vt 0.3125 0.0625
vt 0.375 0.0625
vt 0.375 0.41015625
vt 0.3125 0.41015625
vt 0.3125 0.0625
vt 0.3125 0.50390625
vt 0.3125 0.44140625
vt 0.375 0.44140625
vt 0.375 0.50390625
vt 0.375 0.0625
vt 0.375 0.41015625
vt 0.3125 0.41015625
vt 0.3125 0.0625
vt 0.375 0.0625
vt 0.375 0.41015625
vt 0.3125 0.41015625
vt 0.3125 0.0625
vn 1 0 0
vn -1 0 0
vn 0 1 0
vn 0 0 1
vn 0 0 -1
usemtl m_3ef19fdf-7553-b637-92f7-2bcc9084ac12
f 4/1/1 2/2/1 1/3/1 3/4/1
f 7/5/2 5/6/2 6/7/2 8/8/2
f 1/9/3 2/10/3 6/11/3 5/12/3
f 3/13/4 1/14/4 5/15/4 7/16/4
f 8/17/5 6/18/5 2/19/5 4/20/5
o pillar
v 0.5 0.5625 3.5
v 0.5 0.5625 2.5
v 0.5 -5 3.5
v 0.5 -5 2.5
v -0.5 0.5625 3.5
v -0.5 0.5625 2.5
v -0.5 -5 3.5
v -0.5 -5 2.5
vt 0.375 0.0625
vt 0.375 0.41015625
vt 0.3125 0.41015625
vt 0.3125 0.0625
vt 0.375 0.0625
vt 0.375 0.41015625
vt 0.3125 0.41015625
vt 0.3125 0.0625
vt 0.3125 0.50390625
vt 0.3125 0.44140625
vt 0.375 0.44140625
vt 0.375 0.50390625
vt 0.375 0.0625
vt 0.375 0.41015625
vt 0.3125 0.41015625
vt 0.3125 0.0625
vt 0.375 0.0625
vt 0.375 0.41015625
vt 0.3125 0.41015625
vt 0.3125 0.0625
vn 1 0 0
vn -1 0 0
vn 0 1 0
vn 0 0 1
vn 0 0 -1
usemtl m_3ef19fdf-7553-b637-92f7-2bcc9084ac12
f 12/21/6 10/22/6 9/23/6 11/24/6
f 15/25/7 13/26/7 14/27/7 16/28/7
f 9/29/8 10/30/8 14/31/8 13/32/8
f 11/33/9 9/34/9 13/35/9 15/36/9
f 16/37/10 14/38/10 10/39/10 12/40/10
o wall
v 0.3125 0.5625 2.5
v 0.3125 0.5625 -2.5
v 0.3125 -5.0078125 2.5
v 0.3125 -5.0078125 -2.5
v -0.3125 0.5625 2.5
v -0.3125 0.5625 -2.5
v -0.3125 -5.0078125 2.5
v -0.3125 -5.0078125 -2.5
vt 0.3125 0.0625
vt 0.30859375 0.41015625
vt 0 0.41015625
vt 0 0.0625
vt 0.3125 0.0625
vt 0.3125 0.41015625
vt 0 0.41015625
vt 0 0.0625
vt 0.3125 0.41015625
vt 0 0.6875
vt 0 0.6875
vt 0.3125 0.41015625
vn 1 0 0
vn -1 0 0
vn 0 1 0
usemtl m_3ef19fdf-7553-b637-92f7-2bcc9084ac12
f 20/41/11 18/42/11 17/43/11 19/44/11
f 23/45/12 21/46/12 22/47/12 24/48/12
f 17/49/13 18/50/13 22/51/13 21/52/13