# Made in Blockbench 4.9.4
mtllib dungeon_wall_door.mtl

o pillar
v -2.5 -5 -0.5
v -2.5 10 -0.5
v -2.5 10 0.5
v -2.5 -5 0.5
v -3.5 -5 0.5
v -3.5 10 0.5
v -3.5 10 -0.5
v -3.5 -5 -0.5
vt 0.375 0.0625
vt 0.375 1
vt 0.3125 1
vt 0.3125 0.0625
vt 0.375 0.0625
vt 0.375 1
vt 0.3125 1
vt 0.3125 0.0625
vt 0.375 0.0625
vt 0.375 1
vt 0.3125 1
vt 0.3125 0.0625
vt 0.375 0.0625
vt 0.375 1
vt 0.3125 1
vt 0.3125 0.0625
vn 1 0 0
vn -1 0 0
vn 0 0 1
vn 0 0 -1
usemtl m_ebd499df-b69b-cd5e-583d-48ef1d3fe2e6
f 1/1/1 2/2/1 3/3/1 4/4/1
f 5/5/2 6/6/2 7/7/2 8/8/2
f 4/9/3 3/10/3 6/11/3 5/12/3
f 8/13/4 7/14/4 2/15/4 1/16/4
o pillar
v 3.5 -5 -0.5
v 3.5 10 -0.5
v 3.5 10 0.5
v 3.5 -5 0.5
v 2.5 -5 0.5
v 2.5 10 0.5
v 2.5 10 -0.5
v 2.5 -5 -0.5
vt 0.375 0.0625
vt 0.375 1
vt 0.3125 1
vt 0.3125 0.0625
vt 0.375 0.0625
vt 0.375 1
vt 0.3125 1
vt 0.3125 0.0625
vt 0.375 0.0625
vt 0.375 1
vt 0.3125 1
vt 0.3125 0.0625
vt 0.375 0.0625
vt 0.375 1
vt 0.3125 1
vt 0.3125 0.0625
vn 1 0 0
vn -1 0 0
vn 0 0 1
vn 0 0 -1
usemtl m_ebd499df-b69b-cd5e-583d-48ef1d3fe2e6
f 9/17/5 10/18/5 11/19/5 12/20/5
f 13/21/6 14/22/6 15/23/6 16/24/6
f 12/25/7 11/26/7 14/27/7 13/28/7
f 16/29/8 15/30/8 10/31/8 9/32/8
o wall
v 2.5 -5 0.25
v 2.5 0 0.25
v -2.5 0 0.25
v -2.5 -5 0.25
v -1 0 0.25
v -2.5 0 0.25
v -1 0 -0.25
v -2.5 0 -0.25
v 1 0 0.25
v -1 0 0.25
v 1 0 -0.25
v -1 0 -0.25
v 2.5 0 0.25
v 1 0 0.25
v 2.5 0 -0.25
v 1 0 -0.25
vt 0.3125 0.0625
vt 0.3125 0.40625
vt 0 0.40625
vt 0 0.0625
vt 0.09375 0.40625
vt 0.09375 0.4375
vt 0 0.4375
vt 0 0.40625
vt 0.625 0.96875
vt 0.625 1
vt 0.5 1
vt 0.5 0.96875
vt 0.3125 0.40625
vt 0.3125 0.4375
vt 0.21875 0.4375
vt 0.21875 0.40625
vn 0 0 1
vn 0 1 0
vn 0 1 0
vn 0 1 0
usemtl m_ebd499df-b69b-cd5e-583d-48ef1d3fe2e6
f 17/33/9 18/34/9 19/35/9 20/36/9
f 21/37/10 23/38/10 24/39/10 22/40/10
f 25/41/11 27/42/11 28/43/11 26/44/11
f 29/45/12 31/46/12 32/47/12 30/48/12
o wall
v -2.5 -5 -0.25
v -2.5 10 -0.25
v 2.5 10 -0.25
v 2.5 -5 -0.25
v -2.5 -1.7763568394002505e-15 -0.25
v 2.5 -1.7763568394002505e-15 -0.25
v -2.5 4.999999999999999 -0.25
v 2.5 4.999999999999999 -0.25
v 1 -1.7763568394002505e-15 -0.25
v 2.5 -1.7763568394002505e-15 -0.25
v 1 4.999999999999999 -0.25
v 2.5 4.999999999999999 -0.25
v -1 2.9999999999999982 -0.25
v 1 2.9999999999999982 -0.25
v -1 4.999999999999999 -0.25
v 1 4.999999999999999 -0.25
v -2.5 -1.7763568394002505e-15 -0.25
v -1 -1.7763568394002505e-15 -0.25
v -2.5 4.999999999999999 -0.25
v -1 4.999999999999999 -0.25
vt 0 1
vt 0 0.6875
vt 0.3125 0.6875
vt 0.3125 1
vt 0.3125 0.0625
vt 0.3125 0.3749999999999999
vt 0 0.3749999999999999
vt 0 0.0625
vt 0.09375 0.3749999999999999
vt 0.09375 0.6875
vt 0 0.6875
vt 0 0.3749999999999999
vt 0.21875 0.5625
vt 0.21875 0.6875
vt 0.09375 0.6875
vt 0.09375 0.5625
vt 0.3125 0.3749999999999999
vt 0.3125 0.6875
vt 0.21875 0.6875
vt 0.21875 0.3749999999999999
vn 0 0 -1
vn 0 0 -1
vn 0 0 -1
vn 0 0 -1
vn 0 0 -1
usemtl m_ebd499df-b69b-cd5e-583d-48ef1d3fe2e6
f 35/49/13 40/50/13 39/51/13 34/52/13
f 33/53/14 37/54/14 38/55/14 36/56/14
f 41/57/15 43/58/15 44/59/15 42/60/15
f 45/61/16 47/62/16 48/63/16 46/64/16
f 49/65/17 51/66/17 52/67/17 50/68/17
o cube
v 1.5 3 0.5
v 1.5 3 -0.5
v 1.5 0 0.5
v 1.5 0 -0.5
v 1 3 0.5
v 1 3 -0.5
v 1 0 0.5
v 1 0 -0.5
v 1.5 3 -0.5
v 1.5 0 -0.5
v 1 3 -0.5
v 1 0 -0.5
v 1.25 3 -0.5
v 1.25 0 -0.5
v 1.5 3 0.5
v 1.5 0 0.5
v 1 3 0.5
v 1 0 0.5
v 1.25 3 0.5
v 1.25 0 0.5
vt 0.4375 0.4375
vt 0.4375 0.625
vt 0.375 0.625
vt 0.375 0.4375
vt 0.4375 0.4375
vt 0.4375 0.625
vt 0.375 0.625
vt 0.375 0.4375
vt 0.375 0.4375
vt 0.390625 0.4375
vt 0.390625 0.625
vt 0.375 0.625
vt 0.4375 0.625
vt 0.421875 0.625
vt 0.421875 0.4375
vt 0.4375 0.4375
vt 0.375 0.4375
vt 0.390625 0.4375
vt 0.390625 0.625
vt 0.375 0.625
vt 0.4375 0.625
vt 0.421875 0.625
vt 0.421875 0.4375
vt 0.4375 0.4375
vn 1 0 0
vn -1 0 0
vn 0 0 -1
vn 0 0 -1
vn 0 0 1
vn 0 0 1
usemtl m_ebd499df-b69b-cd5e-583d-48ef1d3fe2e6
f 56/69/18 54/70/18 53/71/18 55/72/18
f 59/73/19 57/74/19 58/75/19 60/76/19
f 62/77/20 66/78/20 65/79/20 61/80/20
f 63/81/21 65/82/21 66/83/21 64/84/21
f 70/85/22 72/86/22 71/87/22 69/88/22
f 67/89/23 71/90/23 72/91/23 68/92/23
o cube
v 1.5625 3.5 0.5625
v 1.5625 3.5 -0.5625
v 1.5625 3 0.5625
v 1.5625 3 -0.5625
v -1.5625 3.5 0.5625
v -1.5625 3.5 -0.5625
v -1.5625 3 0.5625
v -1.5625 3 -0.5625
v -1.5625 3.5 0.5625
v -1.5625 3.5 -0.5625
v -1.5625 3 0.5625
v -1.5625 3 -0.5625
v -1.5625 3.5 0
v -1.5625 3 0
v 1.5625 3.5 0.5625
v 1.5625 3.5 -0.5625
v 1.5625 3 0.5625
v 1.5625 3 -0.5625
v 1.5625 3.5 0
v 1.5625 3 0
vt 0.6328125 0.5546875
vt 0.6328125 0.625
vt 0.4375 0.625
vt 0.4375 0.5546875
vt 0.6328125 0.5546875
vt 0.6328125 0.625
vt 0.4375 0.625
vt 0.4375 0.5546875
vt 0.6328125 0.5234375
vt 0.6328125 0.5546875
vt 0.4375 0.5546875
vt 0.4375 0.5234375
vt 0.6328125 0.5234375
vt 0.6328125 0.5546875
vt 0.4375 0.5546875
vt 0.4375 0.5234375
vt 0.4375 0.5234375
vt 0.47265625 0.5234375
vt 0.47265625 0.5546875
vt 0.4375 0.5546875
vt 0.6328125 0.5546875
vt 0.59765625 0.5546875
vt 0.59765625 0.5234375
vt 0.6328125 0.5234375
vt 0.4375 0.5234375
vt 0.47265625 0.5234375
vt 0.47265625 0.5546875
vt 0.4375 0.5546875
vt 0.6328125 0.5546875
vt 0.59765625 0.5546875
vt 0.59765625 0.5234375
vt 0.6328125 0.5234375
vn 0 1 0
vn 0 -1 0
vn 0 0 1
vn 0 0 -1
vn -1 0 0
vn -1 0 0
vn 1 0 0
vn 1 0 0
usemtl m_ebd499df-b69b-cd5e-583d-48ef1d3fe2e6
f 73/93/24 74/94/24 78/95/24 77/96/24
f 76/97/25 75/98/25 79/99/25 80/100/25
f 75/101/26 73/102/26 77/103/26 79/104/26
f 80/105/27 78/106/27 74/107/27 76/108/27
f 84/109/28 86/110/28 85/111/28 82/112/28
f 81/113/29 85/114/29 86/115/29 83/116/29
f 89/117/30 92/118/30 91/119/30 87/120/30
f 88/121/31 91/122/31 92/123/31 90/124/31
o cube
v -1 3 0.5
v -1 3 -0.5
v -1 0 0.5
v -1 0 -0.5
v -1.5 3 0.5
v -1.5 3 -0.5
v -1.5 0 0.5
v -1.5 0 -0.5
v -1 3 -0.5
v -1 0 -0.5
v -1.5 3 -0.5
v -1.5 0 -0.5
v -1.25 3 -0.5
v -1.25 0 -0.5
v -1 3 0.5
v -1 0 0.5
v -1.5 3 0.5
v -1.5 0 0.5
v -1.25 3 0.5
v -1.25 0 0.5
vt 0.4375 0.4375
vt 0.4375 0.625
vt 0.375 0.625
vt 0.375 0.4375
vt 0.4375 0.4375
vt 0.4375 0.625
vt 0.375 0.625
vt 0.375 0.4375
vt 0.375 0.4375
vt 0.390625 0.4375
vt 0.390625 0.625
vt 0.375 0.625
vt 0.4375 0.625
vt 0.421875 0.625
vt 0.421875 0.4375
vt 0.4375 0.4375
vt 0.375 0.4375
vt 0.390625 0.4375
vt 0.390625 0.625
vt 0.375 0.625
vt 0.4375 0.625
vt 0.421875 0.625
vt 0.421875 0.4375
vt 0.4375 0.4375
vn 1 0 0
vn -1 0 0
vn 0 0 -1
vn 0 0 -1
vn 0 0 1
vn 0 0 1
usemtl m_ebd499df-b69b-cd5e-583d-48ef1d3fe2e6
f 96/125/32 94/126/32 93/127/32 95/128/32
f 99/129/33 97/130/33 98/131/33 100/132/33
f 102/133/34 106/134/34 105/135/34 101/136/34
f 103/137/35 105/138/35 106/139/35 104/140/35
f 110/141/36 112/142/36 111/143/36 109/144/36
f 107/145/37 111/146/37 112/147/37 108/148/37