# Made in Blockbench 4.9.4
mtllib dungeon_wall_mid_mid.mtl

o wall
v 0.3125 5.5561005717255725 2.5
v 0.3125 5.546875 -2.5
v 0.3125 -5.015625 2.5
v 0.3125 -5.015625 -2.5
v -0.3125 5.5561005717255725 2.5
v -0.3125 5.546875 -2.5
v -0.3125 -5.015625 2.5
v -0.3125 -5.015625 -2.5
vt 0.3125 0.0625
vt 0.3125 0.72265625
vt 0 0.72265625
vt 0 0.0625
vt 0.3125 0.0625
vt 0.3125 0.72265625
vt 0 0.72265625
vt 0 0.0625
vt 0.3125 0.72265625
vt 0 0.72265625
vt 0 0.75390625
vt 0.3125 0.75390625
vn 1 0 0
vn -1 0 0
vn 0 0.9999982977808731 -0.0018451112043255662
usemtl m_ffe3b725-d98a-5438-e389-9d92d0afad27
f 4/1/1 2/2/1 1/3/1 3/4/1
f 7/5/2 5/6/2 6/7/2 8/8/2
f 1/9/3 2/10/3 6/11/3 5/12/3
o pillar
v 0.5 5.5625 3.5
v 0.5 5.5625 2.5
v 0.5 -5 3.5
v 0.5 -5 2.5
v -0.5 5.5625 3.5
v -0.5 5.5625 2.5
v -0.5 -5 3.5
v -0.5 -5 2.5
vt 0.375 0.0625
vt 0.375 0.72265625
vt 0.3125 0.72265625
vt 0.3125 0.0625
vt 0.375 0.0625
vt 0.375 0.72265625
vt 0.3125 0.72265625
vt 0.3125 0.0625
vt 0.375 0.72265625
vt 0.375 0.78515625
vt 0.3125 0.78515625
vt 0.3125 0.72265625
vt 0.375 0.0625
vt 0.375 0.72265625
vt 0.3125 0.72265625
vt 0.3125 0.0625
vt 0.375 0.0625
vt 0.375 0.72265625
vt 0.3125 0.72265625
vt 0.3125 0.0625
vn 1 0 0
vn -1 0 0
vn 0 1 0
vn 0 0 1
vn 0 0 -1
usemtl m_ffe3b725-d98a-5438-e389-9d92d0afad27
f 12/13/4 10/14/4 9/15/4 11/16/4
f 15/17/5 13/18/5 14/19/5 16/20/5
f 9/21/6 10/22/6 14/23/6 13/24/6
f 11/25/7 9/26/7 13/27/7 15/28/7
f 16/29/8 14/30/8 10/31/8 12/32/8
o pillar
v 0.5 5 3.5
v 0.5 5 2.5
v 0.5 -5 3.5
v 0.5 -5 2.5
v -0.5 5 3.5
v -0.5 5 2.5
v -0.5 -5 3.5
v -0.5 -5 2.5
vt 0.375 0.0625
vt 0.375 0.6875
vt 0.3125 0.6875
vt 0.3125 0.0625
vt 0.375 0.0625
vt 0.375 0.6875
vt 0.3125 0.6875
vt 0.3125 0.0625
vt 0.375 0.6875
vt 0.375 0.75
vt 0.3125 0.75
vt 0.3125 0.6875
vt 0.375 0.0625
vt 0.375 0.6875
vt 0.3125 0.6875
vt 0.3125 0.0625
vt 0.375 0.0625
vt 0.375 0.6875
vt 0.3125 0.6875
vt 0.3125 0.0625
vn 1 0 0
vn -1 0 0
vn 0 1 0
vn 0 0 1
vn 0 0 -1
usemtl m_ffe3b725-d98a-5438-e389-9d92d0afad27
f 20/33/9 18/34/9 17/35/9 19/36/9
f 23/37/10 21/38/10 22/39/10 24/40/10
f 17/41/11 18/42/11 22/43/11 21/44/11
f 19/45/12 17/46/12 21/47/12 23/48/12
f 24/49/13 22/50/13 18/51/13 20/52/13
o pillar
v 0.5 5.5625 -2.5
v 0.5 5.5625 -3.5
v 0.5 -5 -2.5
v 0.5 -5 -3.5
v -0.5 5.5625 -2.5
v -0.5 5.5625 -3.5
v -0.5 -5 -2.5
v -0.5 -5 -3.5
vt 0.375 0.0625
vt 0.375 0.72265625
vt 0.3125 0.72265625
vt 0.3125 0.0625
vt 0.375 0.0625
vt 0.375 0.72265625
vt 0.3125 0.72265625
vt 0.3125 0.0625
vt 0.375 0.72265625
vt 0.375 0.78515625
vt 0.3125 0.78515625
vt 0.3125 0.72265625
vt 0.375 0.0625
vt 0.375 0.72265625
vt 0.3125 0.72265625
vt 0.3125 0.0625
vt 0.375 0.0625
vt 0.375 0.72265625
vt 0.3125 0.72265625
vt 0.3125 0.0625
vn 1 0 0
vn -1 0 0
vn 0 1 0
vn 0 0 1
vn 0 0 -1
usemtl m_ffe3b725-d98a-5438-e389-9d92d0afad27
f 28/53/14 26/54/14 25/55/14 27/56/14
f 31/57/15 29/58/15 30/59/15 32/60/15
f 25/61/16 26/62/16 30/63/16 29/64/16
f 27/65/17 25/66/17 29/67/17 31/68/17
f 32/69/18 30/70/18 26/71/18 28/72/18