# Made in Blockbench 4.9.3
mtllib dungeon_wall.mtl

o pillar
v -2.5 -5 -0.5
v -2.5 10 -0.5
v -2.5 10 0.5
v -2.5 -5 0.5
v -3.5 -5 0.5
v -3.5 10 0.5
v -3.5 10 -0.5
v -3.5 -5 -0.5
vt 0.375 0.0625
vt 0.375 1
vt 0.3125 1
vt 0.3125 0.0625
vt 0.375 0.0625
vt 0.375 1
vt 0.3125 1
vt 0.3125 0.0625
vt 0.375 0.0625
vt 0.375 1
vt 0.3125 1
vt 0.3125 0.0625
vt 0.375 0.0625
vt 0.375 1
vt 0.3125 1
vt 0.3125 0.0625
vn 1 0 0
vn -1 0 0
vn 0 0 1
vn 0 0 -1
usemtl m_ebd499df-b69b-cd5e-583d-48ef1d3fe2e6
f 1/1/1 2/2/1 3/3/1 4/4/1
f 5/5/2 6/6/2 7/7/2 8/8/2
f 4/9/3 3/10/3 6/11/3 5/12/3
f 8/13/4 7/14/4 2/15/4 1/16/4
o wall
v -2.5 -5 -0.25
v -2.5 10 -0.25
v 2.5 10 -0.25
v 2.5 -5 -0.25
vt 0.3125 0.0625
vt 0.3125 1
vt 0 1
vt 0 0.0625
vn 0 0 -1
usemtl m_ebd499df-b69b-cd5e-583d-48ef1d3fe2e6
f 9/17/5 10/18/5 11/19/5 12/20/5
o pillar
v 3.5 -5 -0.5
v 3.5 10 -0.5
v 3.5 10 0.5
v 3.5 -5 0.5
v 2.5 -5 0.5
v 2.5 10 0.5
v 2.5 10 -0.5
v 2.5 -5 -0.5
vt 0.375 0.0625
vt 0.375 1
vt 0.3125 1
vt 0.3125 0.0625
vt 0.375 0.0625
vt 0.375 1
vt 0.3125 1
vt 0.3125 0.0625
vt 0.375 0.0625
vt 0.375 1
vt 0.3125 1
vt 0.3125 0.0625
vt 0.375 0.0625
vt 0.375 1
vt 0.3125 1
vt 0.3125 0.0625
vn 1 0 0
vn -1 0 0
vn 0 0 1
vn 0 0 -1
usemtl m_ebd499df-b69b-cd5e-583d-48ef1d3fe2e6
f 13/21/6 14/22/6 15/23/6 16/24/6
f 17/25/7 18/26/7 19/27/7 20/28/7
f 16/29/8 15/30/8 18/31/8 17/32/8
f 20/33/9 19/34/9 14/35/9 13/36/9
o wall
v 2.5 -5 0.25
v 2.5 0 0.25
v -2.5 0 0.25
v -2.5 -5 0.25
v 2.5 0 -0.25
v -2.5 0 -0.25
vt 0.3125 0.0625
vt 0.3125 0.40625
vt 0 0.40625
vt 0 0.0625
vt 0.3125 0.40625
vt 0.3125 0.4375
vt 0 0.4375
vt 0 0.40625
vn 0 0 1
vn 0 1 0
usemtl m_ebd499df-b69b-cd5e-583d-48ef1d3fe2e6
f 21/37/10 22/38/10 23/39/10 24/40/10
f 22/41/11 25/42/11 26/43/11 23/44/11