# Made in Blockbench 4.9.1
mtllib crafting_station.mtl

o cube
v 0.5 0.5 0.5
v 0.5 0.5 -0.5
v 0.5 0.1875 0.5
v 0.5 0.1875 -0.5
v -0.5 0.5 0.5
v -0.5 0.5 -0.5
v -0.5 0.1875 0.5
v -0.5 0.1875 -0.5
vt 0.3333333333333333 0.22916666666666663
vt 0.3333333333333333 0.33333333333333337
vt 0 0.33333333333333337
vt 0 0.22916666666666663
vt 0.3333333333333333 0.22916666666666663
vt 0.3333333333333333 0.33333333333333337
vt 0 0.33333333333333337
vt 0 0.22916666666666663
vt 0.3333333333333333 0.6666666666666667
vt 0.3333333333333333 1
vt 0 1
vt 0 0.6666666666666667
vt 0.3333333333333333 0.33333333333333337
vt 0.3333333333333333 0.6666666666666667
vt 0 0.6666666666666667
vt 0 0.33333333333333337
vt 0.3333333333333333 0.22916666666666663
vt 0.3333333333333333 0.33333333333333337
vt 0 0.33333333333333337
vt 0 0.22916666666666663
vt 0.3333333333333333 0.22916666666666663
vt 0.3333333333333333 0.33333333333333337
vt 0 0.33333333333333337
vt 0 0.22916666666666663
vn 1 0 0
vn -1 0 0
vn 0 1 0
vn 0 -1 0
vn 0 0 1
vn 0 0 -1
usemtl m_63081201-d47d-8369-1bdc-abe3fe837e31
f 4/1/1 2/2/1 1/3/1 3/4/1
f 7/5/2 5/6/2 6/7/2 8/8/2
f 1/9/3 2/10/3 6/11/3 5/12/3
f 4/13/4 3/14/4 7/15/4 8/16/4
f 3/17/5 1/18/5 5/19/5 7/20/5
f 8/21/6 6/22/6 2/23/6 4/24/6
o cube
v 0.4375 -0.25 0.4375
v 0.4375 -0.25 -0.4375
v 0.4375 -0.5 0.4375
v 0.4375 -0.5 -0.4375
v -0.4375 -0.25 0.4375
v -0.4375 -0.25 -0.4375
v -0.4375 -0.5 0.4375
v -0.4375 -0.5 -0.4375
vt 0.2916666666666667 0.14583333333333337
vt 0.2916666666666667 0.22916666666666663
vt 0 0.22916666666666663
vt 0 0.14583333333333337
vt 0.2916666666666667 0.14583333333333337
vt 0.2916666666666667 0.22916666666666663
vt 0 0.22916666666666663
vt 0 0.14583333333333337
vt 0.625 0.7083333333333333
vt 0.625 1
vt 0.3333333333333333 1
vt 0.3333333333333333 0.7083333333333333
vt 0.625 0.41666666666666663
vt 0.625 0.7083333333333333
vt 0.3333333333333333 0.7083333333333333
vt 0.3333333333333333 0.41666666666666663
vt 0.2916666666666667 0.14583333333333337
vt 0.2916666666666667 0.22916666666666663
vt 0 0.22916666666666663
vt 0 0.14583333333333337
vt 0.2916666666666667 0.14583333333333337
vt 0.2916666666666667 0.22916666666666663
vt 0 0.22916666666666663
vt 0 0.14583333333333337
vn 1 0 0
vn -1 0 0
vn 0 1 0
vn 0 -1 0
vn 0 0 1
vn 0 0 -1
usemtl m_63081201-d47d-8369-1bdc-abe3fe837e31
f 12/25/7 10/26/7 9/27/7 11/28/7
f 15/29/8 13/30/8 14/31/8 16/32/8
f 9/33/9 10/34/9 14/35/9 13/36/9
f 12/37/10 11/38/10 15/39/10 16/40/10
f 11/41/11 9/42/11 13/43/11 15/44/11
f 16/45/12 14/46/12 10/47/12 12/48/12
o cube
v -0.0625 0.1875 -0.0625
v -0.0625 0.1875 -0.375
v -0.0625 -0.25 -0.0625
v -0.0625 -0.25 -0.375
v -0.375 0.1875 -0.0625
v -0.375 0.1875 -0.375
v -0.375 -0.25 -0.0625
v -0.375 -0.25 -0.375
vt 0.10416666666666667 0
vt 0.10416666666666667 0.14583333333333337
vt 0 0.14583333333333337
vt 0 0
vt 0.10416666666666667 0
vt 0.10416666666666667 0.14583333333333337
vt 0 0.14583333333333337
vt 0 0
vt 0.10416666666666667 0
vt 0.10416666666666667 0.14583333333333337
vt 0 0.14583333333333337
vt 0 0
vt 0.10416666666666667 0
vt 0.10416666666666667 0.14583333333333337
vt 0 0.14583333333333337
vt 0 0
vn 1 0 0
vn -1 0 0
vn 0 0 1
vn 0 0 -1
usemtl m_63081201-d47d-8369-1bdc-abe3fe837e31
f 20/49/13 18/50/13 17/51/13 19/52/13
f 23/53/14 21/54/14 22/55/14 24/56/14
f 19/57/15 17/58/15 21/59/15 23/60/15
f 24/61/16 22/62/16 18/63/16 20/64/16
o cube
v 0.375 0.1875 -0.0625
v 0.375 0.1875 -0.375
v 0.375 -0.25 -0.0625
v 0.375 -0.25 -0.375
v 0.0625 0.1875 -0.0625
v 0.0625 0.1875 -0.375
v 0.0625 -0.25 -0.0625
v 0.0625 -0.25 -0.375
vt 0.10416666666666667 0
vt 0.10416666666666667 0.14583333333333337
vt 0 0.14583333333333337
vt 0 0
vt 0.10416666666666667 0
vt 0.10416666666666667 0.14583333333333337
vt 0 0.14583333333333337
vt 0 0
vt 0.10416666666666667 0
vt 0.10416666666666667 0.14583333333333337
vt 0 0.14583333333333337
vt 0 0
vt 0.10416666666666667 0
vt 0.10416666666666667 0.14583333333333337
vt 0 0.14583333333333337
vt 0 0
vn 1 0 0
vn -1 0 0
vn 0 0 1
vn 0 0 -1
usemtl m_63081201-d47d-8369-1bdc-abe3fe837e31
f 28/65/17 26/66/17 25/67/17 27/68/17
f 31/69/18 29/70/18 30/71/18 32/72/18
f 27/73/19 25/74/19 29/75/19 31/76/19
f 32/77/20 30/78/20 26/79/20 28/80/20
o cube
v 0.375 0.1875 0.375
v 0.375 0.1875 0.0625
v 0.375 -0.25 0.375
v 0.375 -0.25 0.0625
v 0.0625 0.1875 0.375
v 0.0625 0.1875 0.0625
v 0.0625 -0.25 0.375
v 0.0625 -0.25 0.0625
vt 0.10416666666666667 0
vt 0.10416666666666667 0.14583333333333337
vt 0 0.14583333333333337
vt 0 0
vt 0.10416666666666667 0
vt 0.10416666666666667 0.14583333333333337
vt 0 0.14583333333333337
vt 0 0
vt 0.10416666666666667 0
vt 0.10416666666666667 0.14583333333333337
vt 0 0.14583333333333337
vt 0 0
vt 0.10416666666666667 0
vt 0.10416666666666667 0.14583333333333337
vt 0 0.14583333333333337
vt 0 0
vn 1 0 0
vn -1 0 0
vn 0 0 1
vn 0 0 -1
usemtl m_63081201-d47d-8369-1bdc-abe3fe837e31
f 36/81/21 34/82/21 33/83/21 35/84/21
f 39/85/22 37/86/22 38/87/22 40/88/22
f 35/89/23 33/90/23 37/91/23 39/92/23
f 40/93/24 38/94/24 34/95/24 36/96/24
o cube
v -0.0625 0.1875 0.375
v -0.0625 0.1875 0.0625
v -0.0625 -0.25 0.375
v -0.0625 -0.25 0.0625
v -0.375 0.1875 0.375
v -0.375 0.1875 0.0625
v -0.375 -0.25 0.375
v -0.375 -0.25 0.0625
vt 0.10416666666666667 0
vt 0.10416666666666667 0.14583333333333337
vt 0 0.14583333333333337
vt 0 0
vt 0.10416666666666667 0
vt 0.10416666666666667 0.14583333333333337
vt 0 0.14583333333333337
vt 0 0
vt 0.10416666666666667 0
vt 0.10416666666666667 0.14583333333333337
vt 0 0.14583333333333337
vt 0 0
vt 0.10416666666666667 0
vt 0.10416666666666667 0.14583333333333337
vt 0 0.14583333333333337
vt 0 0
vn 1 0 0
vn -1 0 0
vn 0 0 1
vn 0 0 -1
usemtl m_63081201-d47d-8369-1bdc-abe3fe837e31
f 44/97/25 42/98/25 41/99/25 43/100/25
f 47/101/26 45/102/26 46/103/26 48/104/26
f 43/105/27 41/106/27 45/107/27 47/108/27
f 48/109/28 46/110/28 42/111/28 44/112/28