# Made in Blockbench 4.7.2
mtllib Shambler's Helmet.mtl

o Helmet
v 0.234375 0.453125 0.234375
v 0.234375 0.453125 -0.234375
v 0.234375 -0.015625 0.234375
v 0.234375 -0.015625 -0.234375
v -0.234375 0.453125 0.234375
v -0.234375 0.453125 -0.234375
v -0.234375 -0.015625 0.234375
v -0.234375 -0.015625 -0.234375
vt 0.21875 0.5625
vt 0.21875 0.78125
vt 0 0.78125
vt 0 0.5625
vt 0.65625 0.5625
vt 0.65625 0.78125
vt 0.4375 0.78125
vt 0.4375 0.5625
vt 0.21875 1
vt 0.21875 0.78125
vt 0.4375 0.78125
vt 0.4375 1
vt 0.4375 0.78125
vt 0.4375 1
vt 0.65625 1
vt 0.65625 0.78125
vt 0.875 0.5625
vt 0.875 0.78125
vt 0.65625 0.78125
vt 0.65625 0.5625
vt 0.4375 0.5625
vt 0.4375 0.78125
vt 0.21875 0.78125
vt 0.21875 0.5625
vn 1 0 0
vn -1 0 0
vn 0 1 0
vn 0 -1 0
vn 0 0 1
vn 0 0 -1
usemtl m_02ef4c90-5569-f38f-f46f-e574c719c357
f 4/1/1 2/2/1 1/3/1 3/4/1
f 7/5/2 5/6/2 6/7/2 8/8/2
f 1/9/3 2/10/3 6/11/3 5/12/3
f 4/13/4 3/14/4 7/15/4 8/16/4
f 3/17/5 1/18/5 5/19/5 7/20/5
f 8/21/6 6/22/6 2/23/6 4/24/6