# Made in Blockbench 4.7.2
mtllib Four Door Room.mtl

o plane
v 10 4.9375 10
v 10 4.9375 -10
v -10 4.9375 10
v -10 4.9375 -10
v -1.5124999999999977 3 10
v -1.5124999999999977 3.625 10
v -1.1374999999999982 3.625 10
v -1.1374999999999982 3.625 10
v -1.1374999999999982 4.000000000000001 10
v -0.5125000000000002 4.000000000000001 10
v -1.5124999999999977 3.625 10
v -1.5124999999999977 4.000000000000001 10
v -1.1374999999999982 3.625 10
v -1.1374999999999982 4.000000000000001 10
v 10.000000000000004 4.937500000000001 10
v 10.000000000000004 0 10
v -9.999999999999996 4.937500000000001 10
v -9.999999999999996 0 10
v 10.000000000000004 4.952479945433786 10.060678259984947
v -9.999999999999996 4.952479945433786 10.060678259984947
v 10.000000000000004 0.014979945433784003 10.060678259984947
v -9.999999999999996 0.014979945433784003 10.060678259984947
v 1.5000000000000024 4.937500000000001 10
v 1.5000000000000024 0 10
v -1.499999999999998 0 10
v -1.499999999999998 4.937500000000001 10
v -1.499999999999998 4.000000000000001 10
v 1.5000000000000024 4.000000000000001 10
v 10.000000000000004 4.000000000000001 10
v -9.999999999999996 4.000000000000001 10
v 1.5000000000000024 3 10
v 1.5000000000000024 3.625 10
v 1.125000000000002 3.625 10
v 1.125000000000002 3.625 10
v 1.125000000000002 4.000000000000001 10
v 0.4999999999999999 4.000000000000001 10
v 1.5000000000000024 3.625 10
v 1.5000000000000024 4.000000000000001 10
v 1.125000000000002 3.625 10
v 1.125000000000002 4.000000000000001 10
v -10 3 -1.5125000000000015
v -10 3.625 -1.5125000000000015
v -10 3.625 -1.137500000000002
v -10 3.625 -1.137500000000002
v -10 4.000000000000001 -1.137500000000002
v -10 4.000000000000001 -0.5125000000000037
v -10 3.625 -1.5125000000000015
v -10 4.000000000000001 -1.5125000000000015
v -10 3.625 -1.137500000000002
v -10 4.000000000000001 -1.137500000000002
v -10.000000000000004 4.937500000000001 10
v -10.000000000000004 0 10
v -9.999999999999996 4.937500000000001 -10
v -9.999999999999996 0 -10
v -10.06067825998495 4.952479945433786 10
v -10.060678259984943 4.952479945433786 -10
v -10.06067825998495 0.014979945433784003 10
v -10.060678259984943 0.014979945433784003 -10
v -10 4.937500000000001 1.4999999999999987
v -10 0 1.4999999999999987
v -10 0 -1.5000000000000018
v -10 4.937500000000001 -1.5000000000000018
v -10 4.000000000000001 -1.5000000000000018
v -10 4.000000000000001 1.4999999999999987
v -10.000000000000004 4.000000000000001 10
v -9.999999999999996 4.000000000000001 -10
v -10 3 1.4999999999999987
v -10 3.625 1.4999999999999987
v -10 3.625 1.1249999999999982
v -10 3.625 1.1249999999999982
v -10 4.000000000000001 1.1249999999999982
v -10 4.000000000000001 0.49999999999999634
v -10 3.625 1.4999999999999987
v -10 4.000000000000001 1.4999999999999987
v -10 3.625 1.1249999999999982
v -10 4.000000000000001 1.1249999999999982
v 10 3 1.512499999999997
v 10 3.625 1.512499999999997
v 10 3.625 1.1374999999999975
v 10 3.625 1.1374999999999975
v 10 4.000000000000001 1.1374999999999975
v 10 4.000000000000001 0.5124999999999993
v 10 3.625 1.512499999999997
v 10 4.000000000000001 1.512499999999997
v 10 3.625 1.1374999999999975
v 10 4.000000000000001 1.1374999999999975
v 10 4.937500000000001 -10.000000000000004
v 10 0 -10.000000000000004
v 10 4.937500000000001 9.999999999999996
v 10 0 9.999999999999996
v 10.060678259984947 4.952479945433786 -10.000000000000004
v 10.060678259984947 4.952479945433786 9.999999999999996
v 10.060678259984947 0.014979945433784003 -10.000000000000004
v 10.060678259984947 0.014979945433784003 9.999999999999996
v 10 4.937500000000001 -1.500000000000003
v 10 0 -1.500000000000003
v 10 0 1.4999999999999973
v 10 4.937500000000001 1.4999999999999973
v 10 4.000000000000001 1.4999999999999973
v 10 4.000000000000001 -1.500000000000003
v 10 4.000000000000001 -10.000000000000004
v 10 4.000000000000001 9.999999999999996
v 10 3 -1.500000000000003
v 10 3.625 -1.500000000000003
v 10 3.625 -1.1250000000000027
v 10 3.625 -1.1250000000000027
v 10 4.000000000000001 -1.1250000000000027
v 10 4.000000000000001 -0.5000000000000008
v 10 3.625 -1.500000000000003
v 10 4.000000000000001 -1.500000000000003
v 10 3.625 -1.1250000000000027
v 10 4.000000000000001 -1.1250000000000027
v 1.5124999999999995 3 -10
v 1.5124999999999995 3.625 -10
v 1.1375 3.625 -10
v 1.1375 3.625 -10
v 1.1375 4.000000000000001 -10
v 0.5125000000000016 4.000000000000001 -10
v 1.5124999999999995 3.625 -10
v 1.5124999999999995 4.000000000000001 -10
v 1.1375 3.625 -10
v 1.1375 4.000000000000001 -10
v -10.000000000000002 4.937500000000001 -10.000000000000002
v -10.000000000000002 0 -10.000000000000002
v 9.999999999999998 4.937500000000001 -9.999999999999998
v 9.999999999999998 0 -9.999999999999998
v -10.000000000000002 4.952479945433786 -10.060678259984948
v 9.999999999999998 4.952479945433786 -10.060678259984945
v -10.000000000000002 0.014979945433784003 -10.060678259984948
v 9.999999999999998 0.014979945433784003 -10.060678259984945
v -1.5000000000000007 4.937500000000001 -10
v -1.5000000000000007 0 -10
v 1.4999999999999998 0 -10
v 1.4999999999999998 4.937500000000001 -10
v 1.4999999999999998 4.000000000000001 -10
v -1.5000000000000007 4.000000000000001 -10
v -10.000000000000002 4.000000000000001 -10.000000000000002
v 9.999999999999998 4.000000000000001 -9.999999999999998
v -1.5000000000000007 3 -10
v -1.5000000000000007 3.625 -10
v -1.1250000000000002 3.625 -10
v -1.1250000000000002 3.625 -10
v -1.1250000000000002 4.000000000000001 -10
v -0.49999999999999845 4.000000000000001 -10
v -1.5000000000000007 3.625 -10
v -1.5000000000000007 4.000000000000001 -10
v -1.1250000000000002 3.625 -10
v -1.1250000000000002 4.000000000000001 -10
v 10 0 10
v 10 0 -10
v -10 0 10
v -10 0 -10
vt 0 1
vt 0.3125 1
vt 0.3125 0.6875
vt 0 0.6875
vt 0.3193359375 0.677734375
vt 0.3193359375 0.6875
vt 0.3134765625 0.6875
vt 0.330078125 0.681640625
vt 0.330078125 0.6875
vt 0.3203125 0.6875
vt 0.34375 0.6533203125
vt 0.34375 0.6591796875
vt 0.337890625 0.6591796875
vt 0.337890625 0.6533203125
vt 0.4931640625 0.9853515625
vt 0.6259765625 0.9853515625
vt 0.6259765625 0.9228515625
vt 0.4931640625 0.9228515625
vt 0.3134765625 0.9853515625
vt 0.4462890625 0.9853515625
vt 0.4462890625 0.9228515625
vt 0.3134765625 0.9228515625
vt 0.4931640625 0.9853515625
vt 0.4462890625 0.9853515625
vt 0.4462890625 1
vt 0.4931640625 1
vt 0.6259765625 0.9853515625
vt 0.4931640625 0.9853515625
vt 0.4931640625 1
vt 0.6259765625 1
vt 0.4462890625 0.9853515625
vt 0.3134765625 0.9853515625
vt 0.3134765625 1
vt 0.4462890625 1
vt 0.326171875 0.681640625
vt 0.326171875 0.671875
vt 0.3203125 0.681640625
vt 0.3232421875 0.673828125
vt 0.3232421875 0.66796875
vt 0.3134765625 0.673828125
vt 0.3203125 0.658203125
vt 0.326171875 0.658203125
vt 0.326171875 0.65234375
vt 0.3203125 0.65234375
vt 0.3330078125 0.6708984375
vt 0.3330078125 0.6806640625
vt 0.3271484375 0.6806640625
vt 0.333984375 0.6640625
vt 0.333984375 0.669921875
vt 0.32421875 0.669921875
vt 0.3505859375 0.6533203125
vt 0.3505859375 0.6591796875
vt 0.3447265625 0.6591796875
vt 0.3447265625 0.6533203125
vt 0.4931640625 0.9072265625
vt 0.6259765625 0.9072265625
vt 0.6259765625 0.8447265625
vt 0.4931640625 0.8447265625
vt 0.3134765625 0.9072265625
vt 0.4462890625 0.9072265625
vt 0.4462890625 0.8447265625
vt 0.3134765625 0.8447265625
vt 0.4931640625 0.9072265625
vt 0.4462890625 0.9072265625
vt 0.4462890625 0.921875
vt 0.4931640625 0.921875
vt 0.6259765625 0.9072265625
vt 0.4931640625 0.9072265625
vt 0.4931640625 0.921875
vt 0.6259765625 0.921875
vt 0.4462890625 0.9072265625
vt 0.3134765625 0.9072265625
vt 0.3134765625 0.921875
vt 0.4462890625 0.921875
vt 0.3369140625 0.6875
vt 0.3369140625 0.677734375
vt 0.3310546875 0.6875
vt 0.3232421875 0.6669921875
vt 0.3232421875 0.6611328125
vt 0.3134765625 0.6669921875
vt 0.345703125 0.6669921875
vt 0.3515625 0.6669921875
vt 0.3515625 0.6611328125
vt 0.345703125 0.6611328125
vt 0.33984375 0.6669921875
vt 0.33984375 0.6767578125
vt 0.333984375 0.6767578125
vt 0.3447265625 0.66015625
vt 0.3447265625 0.666015625
vt 0.3349609375 0.666015625
vt 0.3330078125 0.6474609375
vt 0.3330078125 0.6533203125
vt 0.3271484375 0.6533203125
vt 0.3271484375 0.6474609375
vt 0.4931640625 0.8291015625
vt 0.6259765625 0.8291015625
vt 0.6259765625 0.7666015625
vt 0.4931640625 0.7666015625
vt 0.3134765625 0.8291015625
vt 0.4462890625 0.8291015625
vt 0.4462890625 0.7666015625
vt 0.3134765625 0.7666015625
vt 0.4931640625 0.8291015625
vt 0.4462890625 0.8291015625
vt 0.4462890625 0.84375
vt 0.4931640625 0.84375
vt 0.6259765625 0.8291015625
vt 0.4931640625 0.8291015625
vt 0.4931640625 0.84375
vt 0.6259765625 0.84375
vt 0.4462890625 0.8291015625
vt 0.3134765625 0.8291015625
vt 0.3134765625 0.84375
vt 0.4462890625 0.84375
vt 0.330078125 0.6640625
vt 0.330078125 0.654296875
vt 0.32421875 0.6640625
vt 0.34765625 0.6875
vt 0.34765625 0.681640625
vt 0.337890625 0.6875
vt 0.333984375 0.65234375
vt 0.33984375 0.65234375
vt 0.33984375 0.646484375
vt 0.333984375 0.646484375
vt 0.3369140625 0.6533203125
vt 0.3369140625 0.6630859375
vt 0.3310546875 0.6630859375
vt 0.34765625 0.6748046875
vt 0.34765625 0.6806640625
vt 0.337890625 0.6806640625
vt 0.3466796875 0.646484375
vt 0.3466796875 0.65234375
vt 0.3408203125 0.65234375
vt 0.3408203125 0.646484375
vt 0.4931640625 0.7509765625
vt 0.6259765625 0.7509765625
vt 0.6259765625 0.6884765625
vt 0.4931640625 0.6884765625
vt 0.3134765625 0.7509765625
vt 0.4462890625 0.7509765625
vt 0.4462890625 0.6884765625
vt 0.3134765625 0.6884765625
vt 0.4931640625 0.7509765625
vt 0.4462890625 0.7509765625
vt 0.4462890625 0.765625
vt 0.4931640625 0.765625
vt 0.6259765625 0.7509765625
vt 0.4931640625 0.7509765625
vt 0.4931640625 0.765625
vt 0.6259765625 0.765625
vt 0.4462890625 0.7509765625
vt 0.3134765625 0.7509765625
vt 0.3134765625 0.765625
vt 0.4462890625 0.765625
vt 0.3193359375 0.6611328125
vt 0.3193359375 0.6513671875
vt 0.3134765625 0.6611328125
vt 0.3505859375 0.673828125
vt 0.3505859375 0.66796875
vt 0.3408203125 0.673828125
vt 0.34765625 0.65234375
vt 0.353515625 0.65234375
vt 0.353515625 0.646484375
vt 0.34765625 0.646484375
vt 0.3125 0.3740234375
vt 0.3125 0.6865234375
vt 0 0.6865234375
vt 0 0.3740234375
vn 0 -1 0
vn 0 0 -1
vn 0 0 -1
vn 0 0 -1
vn 0 0 -1
vn 0 0 -1
vn 0 0 -1
vn 0 0 -1
vn 0 0 -1
vn 0 0 -1
vn 0 0 -1
vn 0 0 -1
vn 1 0 0
vn 1 0 0
vn 1 0 0
vn 1 0 4.17966315153e-16
vn 1 0 4.179663151530002e-16
vn 1 0 0
vn 1 0 4.17966315153e-16
vn 1 0 4.179663151530002e-16
vn 1 0 0
vn 1 0 0
vn 1 0 0
vn -1 0 0
vn -1 0 0
vn -1 0 0
vn -1 0 0
vn -1 0 0
vn -1 0 0
vn -1 0 0
vn -1 0 0
vn -1 0 0
vn -1 0 0
vn -1 0 0
vn 0 0 1
vn 0 0 1
vn 0 0 1
vn -2.089831575765e-16 0 1
vn -2.089831575765001e-16 0 1
vn 0 0 1
vn -2.089831575765e-16 0 1
vn -2.089831575765001e-16 0 1
vn 0 0 1
vn 0 0 1
vn 0 0 1
vn 0 1 0
usemtl m_07ccc46c-2013-6dea-d89b-cd276842acc9
f 4/1/1 2/2/1 1/3/1 3/4/1
f 5/5/2 6/6/2 7/7/2
f 8/8/3 9/9/3 10/10/3
f 11/11/4 12/12/4 14/13/4 13/14/4
f 28/15/5 29/16/5 16/17/5 24/18/5
f 30/19/6 27/20/6 25/21/6 18/22/6
f 28/23/7 27/24/7 26/25/7 23/26/7
f 29/27/8 28/28/8 23/29/8 15/30/8
f 27/31/9 30/32/9 17/33/9 26/34/9
f 32/35/10 31/36/10 33/37/10
f 35/38/11 34/39/11 36/40/11
f 40/41/12 38/42/12 37/43/12 39/44/12
f 41/45/13 42/46/13 43/47/13
f 44/48/14 45/49/14 46/50/14
f 47/51/15 48/52/15 50/53/15 49/54/15
f 64/55/16 65/56/16 52/57/16 60/58/16
f 66/59/17 63/60/17 61/61/17 54/62/17
f 64/63/18 63/64/18 62/65/18 59/66/18
f 65/67/19 64/68/19 59/69/19 51/70/19
f 63/71/20 66/72/20 53/73/20 62/74/20
f 68/75/21 67/76/21 69/77/21
f 71/78/22 70/79/22 72/80/22
f 76/81/23 74/82/23 73/83/23 75/84/23
f 77/85/24 78/86/24 79/87/24
f 80/88/25 81/89/25 82/90/25
f 83/91/26 84/92/26 86/93/26 85/94/26
f 100/95/27 101/96/27 88/97/27 96/98/27
f 102/99/28 99/100/28 97/101/28 90/102/28
f 100/103/29 99/104/29 98/105/29 95/106/29
f 101/107/30 100/108/30 95/109/30 87/110/30
f 99/111/31 102/112/31 89/113/31 98/114/31
f 104/115/32 103/116/32 105/117/32
f 107/118/33 106/119/33 108/120/33
f 112/121/34 110/122/34 109/123/34 111/124/34
f 113/125/35 114/126/35 115/127/35
f 116/128/36 117/129/36 118/130/36
f 119/131/37 120/132/37 122/133/37 121/134/37
f 136/135/38 137/136/38 124/137/38 132/138/38
f 138/139/39 135/140/39 133/141/39 126/142/39
f 136/143/40 135/144/40 134/145/40 131/146/40
f 137/147/41 136/148/41 131/149/41 123/150/41
f 135/151/42 138/152/42 125/153/42 134/154/42
f 140/155/43 139/156/43 141/157/43
f 143/158/44 142/159/44 144/160/44
f 148/161/45 146/162/45 145/163/45 147/164/45
f 149/165/46 150/166/46 152/167/46 151/168/46